HIERARCHY
ROOT Hips
{
	OFFSET 0.000000 87.230942 0.000000
	CHANNELS 6 Xposition Yposition Zposition Xrotation Yrotation Zrotation
	JOINT Pelvis
	{
		OFFSET 0.000000 0.000000 0.000000
		CHANNELS 3 Xrotation Yrotation Zrotation
		JOINT LeftUpLeg
		{
			OFFSET 12.017000 -9.376404 -2.439400
			CHANNELS 3 Xrotation Yrotation Zrotation
			JOINT LeftLeg
			{
				OFFSET -0.007312 -32.846973 2.110600
				CHANNELS 3 Xrotation Yrotation Zrotation
				JOINT LeftFoot
				{
					OFFSET 0.007312 -32.065170 -0.570400
					CHANNELS 3 Xrotation Yrotation Zrotation
					JOINT LeftToeBase
					{
						OFFSET 0.728300 -11.045900 13.180700
						CHANNELS 3 Xrotation Yrotation Zrotation
						End Site
						{
							OFFSET 0.000000 17.212589 0.000000
						}
					}
				}
				JOINT LeftPantLeg
				{
					OFFSET 0.002788 -16.709013 -3.143600
					CHANNELS 3 Xrotation Yrotation Zrotation
					End Site
					{
						OFFSET -0.605125 24.528742 0.000000
					}
				}
			}
			JOINT Left_Butt
			{
				OFFSET -6.630234 1.326584 -3.183700
				CHANNELS 3 Xrotation Yrotation Zrotation
				End Site
				{
					OFFSET -0.498041 20.188049 0.000000
				}
			}
		}
		JOINT RightUpLeg
		{
			OFFSET -11.717000 -9.376404 -2.439400
			CHANNELS 3 Xrotation Yrotation Zrotation
			JOINT RightLeg
			{
				OFFSET -0.003241 -32.846912 2.110600
				CHANNELS 3 Xrotation Yrotation Zrotation
				JOINT RightFoot
				{
					OFFSET 0.003241 -32.065136 -0.570500
					CHANNELS 3 Xrotation Yrotation Zrotation
					JOINT RightToeBase
					{
						OFFSET -0.728300 -11.045901 13.180700
						CHANNELS 3 Xrotation Yrotation Zrotation
						End Site
						{
							OFFSET 0.000000 17.212593 0.000000
						}
					}
				}
				JOINT RightPantLeg
				{
					OFFSET 0.008142 -16.708982 -3.143700
					CHANNELS 3 Xrotation Yrotation Zrotation
					End Site
					{
						OFFSET 0.605088 24.528715 0.000000
					}
				}
			}
			JOINT Right_Butt
			{
				OFFSET 6.630732 1.326584 -3.183700
				CHANNELS 3 Xrotation Yrotation Zrotation
				End Site
				{
					OFFSET 0.498015 20.188240 0.000000
				}
			}
		}
	}
	JOINT Spine
	{
		OFFSET -0.062400 7.848404 3.918300
		CHANNELS 3 Xrotation Yrotation Zrotation
		JOINT Spine1
		{
			OFFSET -0.072800 11.422302 0.713400
			CHANNELS 3 Xrotation Yrotation Zrotation
			JOINT Spine2
			{
				OFFSET -0.083200 13.054001 -1.931600
				CHANNELS 3 Xrotation Yrotation Zrotation
				JOINT Neck
				{
					OFFSET -0.092200 14.121796 -5.138800
					CHANNELS 3 Xrotation Yrotation Zrotation
					JOINT Head
					{
						OFFSET 0.000200 10.447403 -0.842000
						CHANNELS 3 Xrotation Yrotation Zrotation
						JOINT Visor
						{
							OFFSET 0.457100 25.671204 16.550400
							CHANNELS 3 Xrotation Yrotation Zrotation
							End Site
							{
								OFFSET 0.000000 26.061493 0.000000
							}
						}
						JOINT HairMidA
						{
							OFFSET 0.459400 31.585403 8.437400
							CHANNELS 3 Xrotation Yrotation Zrotation
							End Site
							{
								OFFSET 0.000000 26.061493 0.000000
							}
						}
						JOINT HairMidB
						{
							OFFSET 0.464000 33.309204 -8.389700
							CHANNELS 3 Xrotation Yrotation Zrotation
							End Site
							{
								OFFSET 0.000000 26.061493 0.000000
							}
						}
						JOINT HairMidC
						{
							OFFSET 0.466600 27.991196 -17.375099
							CHANNELS 3 Xrotation Yrotation Zrotation
							End Site
							{
								OFFSET 0.000000 26.061493 0.000000
							}
						}
						JOINT HairMidD
						{
							OFFSET 0.467700 17.888092 -21.169500
							CHANNELS 3 Xrotation Yrotation Zrotation
							End Site
							{
								OFFSET 0.000000 26.061493 0.000000
							}
						}
						JOINT HairMidE
						{
							OFFSET 5.325700 3.514603 -14.369699
							CHANNELS 3 Xrotation Yrotation Zrotation
							End Site
							{
								OFFSET 0.000000 26.061493 0.000000
							}
						}
						JOINT HairMidF
						{
							OFFSET -4.394100 3.514603 -14.372400
							CHANNELS 3 Xrotation Yrotation Zrotation
							End Site
							{
								OFFSET 0.000000 26.061493 0.000000
							}
						}
						JOINT HairLeftA
						{
							OFFSET 15.319900 25.746506 2.623300
							CHANNELS 3 Xrotation Yrotation Zrotation
							End Site
							{
								OFFSET 0.000000 26.061493 0.000000
							}
						}
						JOINT HairLeftB
						{
							OFFSET 12.619500 29.289398 -8.731499
							CHANNELS 3 Xrotation Yrotation Zrotation
							End Site
							{
								OFFSET 0.000000 26.061493 0.000000
							}
						}
						JOINT HairLeftC
						{
							OFFSET 15.714800 15.959900 2.909800
							CHANNELS 3 Xrotation Yrotation Zrotation
							End Site
							{
								OFFSET 0.000000 26.061493 0.000000
							}
						}
						JOINT HairLeftD
						{
							OFFSET 16.101700 18.437408 -7.553200
							CHANNELS 3 Xrotation Yrotation Zrotation
							End Site
							{
								OFFSET 0.000000 26.061493 0.000000
							}
						}
						JOINT HairLeftE
						{
							OFFSET 9.731900 17.915009 -18.316799
							CHANNELS 3 Xrotation Yrotation Zrotation
							End Site
							{
								OFFSET 0.000000 26.061493 0.000000
							}
						}
						JOINT HairLeftF
						{
							OFFSET 11.204300 4.953598 -9.668100
							CHANNELS 3 Xrotation Yrotation Zrotation
							End Site
							{
								OFFSET 0.000000 26.061493 0.000000
							}
						}
						JOINT HairRightA
						{
							OFFSET -14.397900 25.746307 2.615100
							CHANNELS 3 Xrotation Yrotation Zrotation
							End Site
							{
								OFFSET 0.000000 26.061493 0.000000
							}
						}
						JOINT HairRightB
						{
							OFFSET -11.691200 29.289200 -8.738199
							CHANNELS 3 Xrotation Yrotation Zrotation
							End Site
							{
								OFFSET 0.000000 26.061493 0.000000
							}
						}
						JOINT HairRightC
						{
							OFFSET -14.792900 15.959702 2.901400
							CHANNELS 3 Xrotation Yrotation Zrotation
							End Site
							{
								OFFSET 0.000000 26.061493 0.000000
							}
						}
						JOINT HairRightD
						{
							OFFSET -15.174000 18.437195 -7.561900
							CHANNELS 3 Xrotation Yrotation Zrotation
							End Site
							{
								OFFSET 0.000000 26.061493 0.000000
							}
						}
						JOINT HairRightE
						{
							OFFSET -8.798200 17.914902 -18.322001
							CHANNELS 3 Xrotation Yrotation Zrotation
							End Site
							{
								OFFSET 0.000000 26.061493 0.000000
							}
						}
						JOINT HairRightF
						{
							OFFSET -10.275200 4.953506 -9.674099
							CHANNELS 3 Xrotation Yrotation Zrotation
							End Site
							{
								OFFSET 0.000000 26.061493 0.000000
							}
						}
					}
				}
				JOINT LeftShoulder
				{
					OFFSET 5.133500 7.341202 -1.867600
					CHANNELS 3 Xrotation Yrotation Zrotation
					JOINT LeftArm
					{
						OFFSET 8.072663 0.936867 -2.176600
						CHANNELS 3 Xrotation Yrotation Zrotation
						JOINT LeftForeArm
						{
							OFFSET 31.271999 0.000000 0.000000
							CHANNELS 3 Xrotation Yrotation Zrotation
							JOINT LeftHand
							{
								OFFSET 31.771030 0.000000 0.000000
								CHANNELS 3 Xrotation Yrotation Zrotation
								JOINT LeftHandThumb1
								{
									OFFSET 2.886520 -2.557846 4.416640
									CHANNELS 3 Xrotation Yrotation Zrotation
									JOINT LeftHandThumb2
									{
										OFFSET 2.371025 -1.368912 1.368911
										CHANNELS 3 Xrotation Yrotation Zrotation
										JOINT LeftHandThumb3
										{
											OFFSET 2.243378 -1.295212 1.295213
											CHANNELS 3 Xrotation Yrotation Zrotation
											End Site
											{
												OFFSET -0.332611 2.876945 0.020015
											}
										}
									}
								}
								JOINT LeftHandIndex1
								{
									OFFSET 8.568985 -0.641945 3.119977
									CHANNELS 3 Xrotation Yrotation Zrotation
									JOINT LeftHandIndex2
									{
										OFFSET 3.348503 0.000000 0.000000
										CHANNELS 3 Xrotation Yrotation Zrotation
										JOINT LeftHandIndex3
										{
											OFFSET 3.314552 0.000000 0.000000
											CHANNELS 3 Xrotation Yrotation Zrotation
											End Site
											{
												OFFSET -1.032898 3.075485 0.678796
											}
										}
									}
								}
								JOINT LeftHandMiddle1
								{
									OFFSET 8.124603 0.000000 0.000000
									CHANNELS 3 Xrotation Yrotation Zrotation
									JOINT LeftHandMiddle2
									{
										OFFSET 4.166275 0.000000 0.000000
										CHANNELS 3 Xrotation Yrotation Zrotation
										JOINT LeftHandMiddle3
										{
											OFFSET 3.018135 0.000000 0.000000
											CHANNELS 3 Xrotation Yrotation Zrotation
											End Site
											{
												OFFSET -1.032700 2.767982 0.617226
											}
										}
									}
								}
								JOINT LeftHandRing1
								{
									OFFSET 8.571686 -0.031357 -2.884048
									CHANNELS 3 Xrotation Yrotation Zrotation
									JOINT LeftHandRing2
									{
										OFFSET 3.671181 0.000000 0.000000
										CHANNELS 3 Xrotation Yrotation Zrotation
										JOINT LeftHandRing3
										{
											OFFSET 2.728851 0.000000 0.000000
											CHANNELS 3 Xrotation Yrotation Zrotation
											End Site
											{
												OFFSET -0.815796 2.539223 0.577389
											}
										}
									}
								}
								JOINT LeftHandPinky1
								{
									OFFSET 7.854515 -0.675232 -5.213020
									CHANNELS 3 Xrotation Yrotation Zrotation
									JOINT LeftHandPinky2
									{
										OFFSET 3.068596 0.000000 0.000000
										CHANNELS 3 Xrotation Yrotation Zrotation
										JOINT LeftHandPinky3
										{
											OFFSET 2.396042 0.000000 0.000000
											CHANNELS 3 Xrotation Yrotation Zrotation
											End Site
											{
												OFFSET -0.524597 2.267998 0.567429
											}
										}
									}
								}
							}
							JOINT LeftSleeve
							{
								OFFSET 19.684509 -0.200119 0.476146
								CHANNELS 3 Xrotation Yrotation Zrotation
								End Site
								{
									OFFSET -0.031017 25.731133 -0.002868
								}
							}
						}
					}
				}
				JOINT RightShoulder
				{
					OFFSET -4.395900 7.341202 -1.870200
					CHANNELS 3 Xrotation Yrotation Zrotation
					JOINT RightArm
					{
						OFFSET -8.071453 0.936867 -2.181100
						CHANNELS 3 Xrotation Yrotation Zrotation
						JOINT RightForeArm
						{
							OFFSET -31.272011 0.000000 0.000000
							CHANNELS 3 Xrotation Yrotation Zrotation
							JOINT RightHand
							{
								OFFSET -31.771019 0.000000 0.000000
								CHANNELS 3 Xrotation Yrotation Zrotation
								JOINT RightHandThumb1
								{
									OFFSET -2.886520 -2.557808 4.416626
									CHANNELS 3 Xrotation Yrotation Zrotation
									JOINT RightHandThumb2
									{
										OFFSET -2.371056 -1.368927 1.368928
										CHANNELS 3 Xrotation Yrotation Zrotation
										JOINT RightHandThumb3
										{
											OFFSET -2.243362 -1.295204 1.295206
											CHANNELS 3 Xrotation Yrotation Zrotation
											End Site
											{
												OFFSET 0.332642 2.876938 0.020047
											}
										}
									}
								}
								JOINT RightHandIndex1
								{
									OFFSET -8.568993 -0.641953 3.120017
									CHANNELS 3 Xrotation Yrotation Zrotation
									JOINT RightHandIndex2
									{
										OFFSET -3.348518 0.000000 0.000000
										CHANNELS 3 Xrotation Yrotation Zrotation
										JOINT RightHandIndex3
										{
											OFFSET -3.314552 0.000000 0.000000
											CHANNELS 3 Xrotation Yrotation Zrotation
											End Site
											{
												OFFSET 1.032898 3.075478 0.678804
											}
										}
									}
								}
								JOINT RightHandMiddle1
								{
									OFFSET -8.124588 0.000000 0.000000
									CHANNELS 3 Xrotation Yrotation Zrotation
									JOINT RightHandMiddle2
									{
										OFFSET -4.166275 0.000000 0.000000
										CHANNELS 3 Xrotation Yrotation Zrotation
										JOINT RightHandMiddle3
										{
											OFFSET -3.018097 0.000000 0.000000
											CHANNELS 3 Xrotation Yrotation Zrotation
											End Site
											{
												OFFSET 1.032700 2.767937 0.617197
											}
										}
									}
								}
								JOINT RightHandRing1
								{
									OFFSET -8.571747 -0.031349 -2.884061
									CHANNELS 3 Xrotation Yrotation Zrotation
									JOINT RightHandRing2
									{
										OFFSET -3.671204 0.000000 0.000000
										CHANNELS 3 Xrotation Yrotation Zrotation
										JOINT RightHandRing3
										{
											OFFSET -2.728874 0.000000 0.000000
											CHANNELS 3 Xrotation Yrotation Zrotation
											End Site
											{
												OFFSET 0.815804 2.539261 0.577413
											}
										}
									}
								}
								JOINT RightHandPinky1
								{
									OFFSET -7.854561 -0.675247 -5.212970
									CHANNELS 3 Xrotation Yrotation Zrotation
									JOINT RightHandPinky2
									{
										OFFSET -3.068550 0.000000 0.000000
										CHANNELS 3 Xrotation Yrotation Zrotation
										JOINT RightHandPinky3
										{
											OFFSET -2.395981 0.000000 0.000000
											CHANNELS 3 Xrotation Yrotation Zrotation
											End Site
											{
												OFFSET 0.524605 2.267952 0.567413
											}
										}
									}
								}
							}
							JOINT RightSleeve
							{
								OFFSET -19.684753 -0.200165 0.476065
								CHANNELS 3 Xrotation Yrotation Zrotation
								End Site
								{
									OFFSET 0.031342 25.731255 -0.002917
								}
							}
						}
					}
				}
				JOINT Hood
				{
					OFFSET 0.369700 14.447800 -5.317800
					CHANNELS 3 Xrotation Yrotation Zrotation
					JOINT Hood1
					{
						OFFSET 0.001700 -5.553802 -5.895100
						CHANNELS 3 Xrotation Yrotation Zrotation
						JOINT Hood2
						{
							OFFSET -0.000200 -8.380501 0.763600
							CHANNELS 3 Xrotation Yrotation Zrotation
							End Site
							{
								OFFSET 0.000000 8.415215 0.000000
							}
						}
					}
				}
				JOINT Left_Breast
				{
					OFFSET 5.682500 3.120102 3.188800
					CHANNELS 3 Xrotation Yrotation Zrotation
					End Site
					{
						OFFSET 0.000000 10.528564 0.000000
					}
				}
				JOINT Right_Breast
				{
					OFFSET -4.947600 3.120102 3.185900
					CHANNELS 3 Xrotation Yrotation Zrotation
					End Site
					{
						OFFSET 0.000000 10.528564 0.000000
					}
				}
				JOINT Whistle
				{
					OFFSET 0.368200 11.471298 0.095400
					CHANNELS 3 Xrotation Yrotation Zrotation
					JOINT Whistle1
					{
						OFFSET -0.002000 -6.349899 7.479800
						CHANNELS 3 Xrotation Yrotation Zrotation
						JOINT Whistle2
						{
							OFFSET -0.001300 -8.217598 4.717600
							CHANNELS 3 Xrotation Yrotation Zrotation
							End Site
							{
								OFFSET 0.000000 9.475479 0.000000
							}
						}
					}
				}
			}
		}
		JOINT Belly
		{
			OFFSET 0.212400 1.593002 3.163700
			CHANNELS 3 Xrotation Yrotation Zrotation
			End Site
			{
				OFFSET 0.000000 7.496635 0.000000
			}
		}
	}
	JOINT FitGrandmaFacialAnim_Joint
	{
		OFFSET 1.150000 -86.211197 -1.220100
		CHANNELS 3 Xrotation Yrotation Zrotation
		End Site
		{
			OFFSET 0.000000 31.666618 0.000000
		}
	}
}
MOTION
Frames: 4
Frame Time: 0.016667
-2.347286 80.570877 1.030768 -5.660337 -42.393526 -2.603416 0.000000 0.000001 0.000000 -24.643970 4.920416 12.819646 35.749067 -13.046526 2.179010 -9.157315 0.984736 -10.495216 -0.000000 0.000000 0.000000 -0.000001 0.000004 -0.000000 0.000001 -0.000000 0.000001 1.918970 -15.524094 -17.053510 33.353955 19.536376 -4.569672 -33.892075 -1.886450 5.022657 -0.000000 -0.000002 0.000000 -0.000003 -0.000000 0.000003 -0.000000 0.000003 -0.000002 5.901479 0.481179 -0.134922 11.805243 0.991256 -0.356034 11.805242 0.991259 -0.356036 5.454841 -28.041989 -1.570768 -9.679879 -42.734561 2.179725 0.000001 0.000000 -0.000001 0.000001 0.000000 -0.000001 0.000001 0.000000 -0.000001 0.000001 0.000000 -0.000001 0.000001 0.000000 -0.000001 0.000001 0.000000 -0.000001 0.000001 0.000000 -0.000001 0.000001 0.000000 -0.000001 0.000001 0.000000 -0.000001 0.000001 0.000000 -0.000001 0.000001 0.000000 -0.000001 0.000001 0.000000 -0.000001 0.000001 0.000000 -0.000001 0.000001 0.000000 -0.000001 0.000001 0.000000 -0.000001 0.000001 0.000000 -0.000001 0.000001 0.000000 -0.000001 0.000001 0.000000 -0.000001 0.000001 0.000000 -0.000001 0.953417 -3.294055 -6.337554 -7.803579 10.695478 -60.595690 -1.858067 -56.426354 -5.060470 4.516207 -4.170922 22.267597 11.334915 9.730337 -4.479186 3.334378 8.219294 1.772098 0.000003 -0.000002 0.000004 2.657353 -3.651143 -37.231477 -2.225262 -2.598650 -50.721979 0.000003 0.000001 0.000001 0.107955 6.609298 -47.483895 -2.786372 -4.412158 -56.251242 -0.000002 -0.000003 -0.000000 -2.805071 11.224159 -62.315381 -2.190459 -4.064399 -66.809284 0.000002 -0.000003 0.000001 -6.755478 4.974042 -66.027971 -1.326999 -6.176980 -73.865607 -0.000002 0.000000 -0.000000 0.000003 0.000001 -0.000000 1.781020 9.143875 7.041884 5.733458 -24.152570 68.587660 -7.143951 60.700239 7.121729 7.495346 6.265627 -16.551760 2.659606 -9.639249 12.705341 9.977278 -18.153803 0.046825 -0.000001 -0.000001 0.000000 3.448075 -2.832145 46.578144 -2.544525 2.250428 60.768876 -0.000004 -0.000002 0.000001 -1.797313 -0.803635 42.426895 -4.426256 4.278499 82.714568 -0.000001 -0.000007 0.000002 -4.363418 -0.803148 50.285379 -4.892166 5.732354 89.685998 -0.000001 -0.000005 0.000005 -8.591765 0.616656 50.078834 -5.070523 9.380888 93.712190 -0.000003 0.000000 -0.000001 -0.000001 -0.000005 0.000005 0.000001 -0.000001 0.000000 0.000001 -0.000001 0.000000 0.000001 -0.000001 0.000000 0.000001 -0.000001 0.000000 0.000001 -0.000001 0.000000 0.000001 -0.000001 -0.000000 -0.000002 -0.000001 -0.000001 -0.000002 -0.000001 -0.000001 0.000000 0.000001 0.000000 0.000000 0.000001 0.000000 
-2.404131 80.654900 0.990355 -5.747495 -44.305709 -2.744167 0.000000 0.000001 -0.000000 -23.957327 5.345264 13.343932 35.515075 -11.769292 2.025925 -9.451073 1.059810 -10.877417 -0.000000 0.000000 0.000000 -0.000000 -0.000000 -0.000001 -0.000002 0.000000 -0.000001 0.837842 -15.347915 -17.360413 33.756216 20.133707 -4.911442 -33.465844 -1.851869 5.203808 0.000000 -0.000002 -0.000000 -0.000003 -0.000003 0.000000 0.000000 0.000001 -0.000002 5.947386 0.215061 -0.088777 11.895481 0.464789 -0.236212 11.895481 0.464802 -0.236214 5.195402 -27.982390 -1.762654 -9.294767 -43.262814 2.943802 -0.000000 0.000001 0.000001 -0.000000 0.000001 0.000001 -0.000000 0.000001 0.000001 -0.000000 0.000001 0.000001 -0.000000 0.000001 0.000001 -0.000000 0.000001 0.000001 -0.000000 0.000001 0.000001 -0.000000 0.000001 0.000001 -0.000000 0.000001 0.000001 -0.000000 0.000001 0.000001 -0.000000 0.000001 0.000001 -0.000000 0.000001 0.000001 -0.000000 0.000001 0.000001 -0.000000 0.000001 0.000001 -0.000000 0.000001 0.000001 -0.000000 0.000001 0.000001 -0.000000 0.000001 0.000001 -0.000000 0.000001 0.000001 -0.000000 0.000001 0.000001 0.886150 -3.734525 -6.257960 -7.277716 11.319156 -60.862334 -1.912562 -56.844068 -5.070225 4.598252 -4.482974 22.325452 11.166524 9.800954 -4.305335 3.299758 8.317263 1.736556 -0.000001 0.000002 0.000000 2.430032 -3.828151 -36.215552 -2.114160 -2.506286 -49.528427 0.000003 -0.000002 -0.000002 0.215174 6.756688 -46.504487 -2.677661 -4.338606 -55.049993 -0.000006 -0.000000 0.000002 -2.571699 11.355796 -61.525798 -2.125217 -4.036791 -65.648384 0.000001 -0.000006 0.000002 -6.144470 5.321276 -65.117275 -1.302569 -6.170250 -72.693676 0.000003 0.000000 -0.000001 0.000002 -0.000001 0.000003 1.849872 8.523530 7.171790 5.962390 -24.111200 68.527001 -7.077266 61.206316 7.218182 7.457456 6.199116 -16.983250 2.643637 -9.750539 12.704181 10.045726 -18.113361 0.095456 -0.000000 -0.000001 0.000002 3.693280 -2.556994 47.479906 -2.589255 2.274945 61.275396 -0.000003 -0.000002 0.000001 -1.828337 -0.767071 43.027777 -4.489847 4.286467 83.433629 0.000001 0.000004 -0.000003 -4.453575 -0.817827 50.903211 -4.955567 5.732756 90.416992 0.000003 0.000002 0.000001 -8.704305 0.527728 50.621606 -5.118187 9.370122 94.249500 -0.000001 -0.000001 0.000000 -0.000004 -0.000000 -0.000000 0.000003 0.000002 -0.000001 0.000003 0.000002 -0.000001 0.000003 0.000002 -0.000001 0.000003 0.000002 -0.000001 0.000003 0.000002 -0.000001 0.000003 0.000002 -0.000001 0.000002 -0.000001 0.000001 0.000002 -0.000001 0.000001 0.000000 -0.000001 -0.000000 0.000000 0.000001 -0.000000 
-2.464726 80.738678 0.942692 -5.871893 -46.225354 -2.896155 -0.000000 -0.000001 -0.000000 -23.218916 5.797103 13.833621 35.248537 -10.484808 1.866887 -9.725962 1.137524 -11.270474 0.000000 0.000000 -0.000000 -0.000001 0.000001 0.000000 -0.000002 -0.000000 0.000002 -0.222522 -15.129262 -17.618131 34.181279 20.612135 -5.277402 -33.037847 -1.824260 5.406386 -0.000000 0.000003 -0.000000 0.000001 -0.000000 0.000001 -0.000001 0.000001 -0.000000 5.994668 -0.054957 -0.044972 11.989268 -0.070031 -0.121168 11.989275 -0.070037 -0.121167 4.858843 -27.854877 -2.018469 -8.864675 -43.760274 3.691630 -0.000000 0.000000 -0.000000 -0.000000 0.000000 -0.000000 -0.000000 0.000000 -0.000000 -0.000000 0.000000 -0.000000 -0.000000 0.000000 -0.000000 -0.000000 0.000000 -0.000000 -0.000000 0.000000 -0.000000 -0.000000 0.000000 -0.000000 -0.000000 0.000000 -0.000000 -0.000000 0.000000 -0.000000 -0.000000 0.000000 -0.000000 -0.000000 0.000000 -0.000000 -0.000000 0.000000 -0.000000 -0.000000 0.000000 -0.000000 -0.000000 0.000000 -0.000000 -0.000000 0.000000 -0.000000 -0.000000 0.000000 -0.000000 -0.000000 0.000000 -0.000000 -0.000000 0.000000 -0.000000 0.810234 -4.308830 -6.381131 -6.676088 12.150734 -60.876718 -2.277369 -57.498684 -5.268901 4.466201 -4.693811 22.282249 10.967484 9.825526 -4.124769 3.258302 8.415889 1.703290 -0.000003 -0.000000 0.000005 2.194175 -4.002814 -35.091128 -1.993696 -2.401483 -48.208927 0.000002 -0.000002 0.000000 0.327775 6.910721 -45.419754 -2.561332 -4.255976 -53.740782 0.000000 -0.000004 -0.000001 -2.325149 11.481187 -60.605471 -2.055382 -4.005488 -64.391267 0.000002 -0.000001 0.000004 -5.502786 5.688521 -64.103101 -1.276587 -6.162487 -71.433848 0.000002 -0.000002 0.000001 -0.000001 0.000002 -0.000001 1.951320 7.799980 7.121225 6.182274 -23.943580 68.623839 -6.650487 61.549205 7.002523 7.654145 6.217738 -17.779947 2.794230 -9.711140 12.808120 10.023106 -18.127597 0.049065 -0.000003 -0.000000 0.000001 3.955467 -2.272751 48.348020 -2.630115 2.296948 61.736898 -0.000003 0.000000 0.000003 -1.858072 -0.736056 43.602896 -4.552183 4.293550 84.138764 0.000000 0.000003 0.000001 -4.541469 -0.832920 51.507484 -5.016367 5.732355 91.119757 0.000000 -0.000000 -0.000001 -8.806163 0.435130 51.132063 -5.163177 9.357165 94.720763 -0.000002 0.000001 -0.000004 -0.000000 -0.000002 0.000002 0.000002 0.000001 -0.000000 0.000002 0.000001 -0.000000 0.000002 0.000001 -0.000000 0.000002 0.000001 -0.000000 0.000002 0.000001 -0.000000 0.000002 0.000001 -0.000001 -0.000000 -0.000001 -0.000000 -0.000000 -0.000001 -0.000000 0.000000 0.000002 -0.000000 -0.000000 -0.000001 -0.000000 
-2.523400 80.815956 0.895806 -6.025143 -48.181940 -3.068332 0.000000 -0.000001 -0.000000 -22.441107 6.234856 14.282372 34.991886 -9.131898 1.721710 -10.001850 1.222772 -11.699829 -0.000000 -0.000002 -0.000000 0.000001 0.000005 -0.000001 -0.000002 -0.000002 -0.000002 -1.301103 -14.892468 -17.856606 34.635135 21.085330 -5.651087 -32.588359 -1.805531 5.635260 0.000000 0.000001 0.000000 -0.000000 -0.000002 0.000001 -0.000001 -0.000003 0.000001 6.034976 -0.346092 0.002682 12.069945 -0.646995 0.003704 12.069945 -0.647016 0.003705 4.521432 -27.652207 -2.326639 -8.508139 -44.111418 4.370730 -0.000000 0.000000 -0.000002 -0.000000 0.000000 -0.000002 -0.000000 0.000000 -0.000002 -0.000000 0.000000 -0.000002 -0.000000 0.000000 -0.000002 -0.000000 0.000000 -0.000002 -0.000000 0.000000 -0.000002 -0.000000 0.000000 -0.000002 -0.000000 0.000000 -0.000002 -0.000000 0.000000 -0.000002 -0.000000 0.000000 -0.000002 -0.000000 0.000000 -0.000002 -0.000000 0.000000 -0.000002 -0.000000 0.000000 -0.000002 -0.000000 0.000000 -0.000002 -0.000000 0.000000 -0.000002 -0.000000 0.000000 -0.000002 -0.000000 0.000000 -0.000002 -0.000000 0.000000 -0.000002 0.756125 -4.664577 -6.306322 -6.104450 12.854869 -61.074875 -2.488526 -57.874836 -5.355615 4.470206 -4.729127 21.933237 10.762701 9.805480 -3.951554 3.232084 8.534447 1.656955 0.000001 0.000002 0.000000 1.952096 -4.165050 -33.893420 -1.868548 -2.287459 -46.810780 0.000000 -0.000002 -0.000002 0.445426 7.069490 -44.252451 -2.441598 -4.166778 -52.371841 0.000001 0.000001 0.000001 -2.065085 11.603927 -59.582903 -1.981950 -3.970555 -63.058533 0.000003 -0.000003 0.000001 -4.835927 6.085371 -62.981564 -1.248600 -6.153409 -70.072311 0.000003 0.000000 -0.000002 -0.000001 0.000002 -0.000003 2.018772 7.202341 7.250129 6.408695 -23.946249 68.399864 -6.276807 62.142407 6.935132 7.705304 6.072079 -18.489250 3.013026 -9.639063 12.943727 9.983772 -18.171740 -0.016030 0.000002 -0.000001 -0.000001 4.245900 -1.998505 49.180436 -2.670615 2.318220 62.191236 -0.000001 0.000001 0.000003 -1.884923 -0.716106 44.128821 -4.613429 4.299706 84.829290 -0.000004 0.000000 -0.000000 -4.614508 -0.847627 52.003725 -5.073334 5.731340 91.776186 -0.000001 -0.000001 -0.000003 -8.899398 0.347928 51.604617 -5.216875 9.348965 95.474522 -0.000006 0.000002 0.000001 -0.000001 -0.000001 0.000001 -0.000000 -0.000002 0.000000 -0.000000 -0.000002 0.000000 -0.000000 -0.000002 0.000000 -0.000000 -0.000002 0.000000 -0.000000 -0.000002 0.000000 -0.000000 -0.000002 0.000001 -0.000001 -0.000000 0.000000 -0.000001 -0.000000 0.000000 0.000000 -0.000003 -0.000000 0.000000 -0.000001 -0.000000 
